ffmpeg started on 2025-06-06 at 19:56:09
Report written to "D:\Convert\FFMetrics\reports\psnr_report-6.txt"
Log level: 32
Command line:
ffmpeg -hide_banner -nostdin -i "G:\\\xc0\xed\xe8\xec\xe5\\\xce\xed\xe3\xee\xe8\xed\xe3\xe8\\!_36_\xce\xf1\xe5\xed\xfc_2024\\DreamCast\\\xd0\xee\xed \xca\xe0\xec\xee\xed\xee\xf5\xe0\xf1\xe8 - \xcd\xe5\xe2\xec\xe5\xed\xff\xe5\xec\xfb\xe9 \xe4\xe5\xf2\xe5\xea\xf2\xe8\xe2\\\xd2\xc2-2\\DC_Kamonohashi_Ron_no_Kindan_Suiri_2nd_Season_10_Telegram_HEVC.mkv" -i "G:\\\xc0\xed\xe8\xec\xe5\\\xce\xed\xe3\xee\xe8\xed\xe3\xe8\\!_36_\xce\xf1\xe5\xed\xfc_2024\\DreamCast\\\xd0\xee\xed \xca\xe0\xec\xee\xed\xee\xf5\xe0\xf1\xe8 - \xcd\xe5\xe2\xec\xe5\xed\xff\xe5\xec\xfb\xe9 \xe4\xe5\xf2\xe5\xea\xf2\xe8\xe2\\\xd2\xc2-2\\DC_Kamonohashi_Ron_no_Kindan_Suiri_2nd_Season_10_Telegram.mp4" -lavfi "[0:v]settb=AVTB,setpts=PTS-STARTPTS,format=pix_fmts=yuv420p10,fps=24000/1001,scale=1920:1080:flags=bicubic[main];[1:v]settb=AVTB,setpts=PTS-STARTPTS,format=pix_fmts=yuv420p,fps=24000/1001,scale=1920:1080:flags=bicubic[ref];[main][ref]psnr=eof_action=endall:stats_file='D\\:/Convert/FFMetrics/logs/psnr_logfile-6.txt'" -f null -
Input #0, matroska,webm, from 'G:\Аниме\Онгоинги\!_36_Осень_2024\DreamCast\Рон Камонохаси - Невменяемый детектив\ТВ-2\DC_Kamonohashi_Ron_no_Kindan_Suiri_2nd_Season_10_Telegram_HEVC.mkv':
  Metadata:
    COMPATIBLE_BRANDS: isomiso2avc1mp41
    MAJOR_BRAND     : isom
    MINOR_VERSION   : 512
    ENCODER         : Lavf61.7.100
  Duration: 00:23:46.73, start: -0.021000, bitrate: 853 kb/s
  Stream #0:0: Video: hevc (Main 10), yuv420p10le(tv, bt709, progressive), 1920x1080 [SAR 1:1 DAR 16:9], 23.98 fps, 23.98 tbr, 1k tbn (default)
      Metadata:
        HANDLER_NAME    : VideoHandler
        VENDOR_ID       : [0][0][0][0]
        ENCODER         : Lavc61.19.100 libx265
        BPS             : 656309
        DURATION        : 00:23:46.633708333
        NUMBER_OF_FRAMES: 34205
        NUMBER_OF_BYTES : 117039163
        _STATISTICS_WRITING_APP: mkvpropedit v66.0.0 ('Josie') 64-bit
        _STATISTICS_WRITING_DATE_UTC: 2025-06-04 08:18:37
        _STATISTICS_TAGS: BPS DURATION NUMBER_OF_FRAMES NUMBER_OF_BYTES
  Stream #0:1: Audio: aac (LC), 48000 Hz, stereo, fltp (default)
      Metadata:
        HANDLER_NAME    : SoundHandler
        VENDOR_ID       : [0][0][0][0]
        ENCODER         : Lavc61.19.100 aac
        BPS             : 193498
        DURATION        : 00:23:46.730000000
        NUMBER_OF_FRAMES: 66879
        NUMBER_OF_BYTES : 34508762
        _STATISTICS_WRITING_APP: mkvpropedit v66.0.0 ('Josie') 64-bit
        _STATISTICS_WRITING_DATE_UTC: 2025-06-04 08:18:37
        _STATISTICS_TAGS: BPS DURATION NUMBER_OF_FRAMES NUMBER_OF_BYTES
Input #1, mov,mp4,m4a,3gp,3g2,mj2, from 'G:\Аниме\Онгоинги\!_36_Осень_2024\DreamCast\Рон Камонохаси - Невменяемый детектив\ТВ-2\DC_Kamonohashi_Ron_no_Kindan_Suiri_2nd_Season_10_Telegram.mp4':
  Metadata:
    major_brand     : isom
    minor_version   : 512
    compatible_brands: isomiso2avc1mp41
    encoder         : Lavf61.1.100
  Duration: 00:23:46.70, start: 0.000000, bitrate: 3355 kb/s
  Stream #1:0[0x1](und): Video: h264 (High) (avc1 / 0x31637661), yuv420p(tv, bt709, progressive), 1920x1080 [SAR 1:1 DAR 16:9], 3207 kb/s, 23.98 fps, 23.98 tbr, 24k tbn (default)
      Metadata:
        handler_name    : VideoHandler
        vendor_id       : [0][0][0][0]
        encoder         : Lavc61.3.100 h264_qsv
  Stream #1:1[0x2](und): Audio: aac (HE-AACv2) (mp4a / 0x6134706D), 48000 Hz, stereo, fltp, 144 kb/s (default)
      Metadata:
        handler_name    : SoundHandler
        vendor_id       : [0][0][0][0]
Stream mapping:
  Stream #0:0 (hevc) -> settb:default
  Stream #1:0 (h264) -> settb:default
  psnr:default -> Stream #0:0 (wrapped_avframe)
  Stream #0:1 -> #0:1 (aac (native) -> pcm_s16le (native))
Output #0, null, to 'pipe:':
  Metadata:
    COMPATIBLE_BRANDS: isomiso2avc1mp41
    MAJOR_BRAND     : isom
    MINOR_VERSION   : 512
    encoder         : Lavf61.7.100
  Stream #0:0: Video: wrapped_avframe, yuv420p10le(tv, bt709, progressive), 1920x1080 [SAR 1:1 DAR 16:9], q=2-31, 200 kb/s, 23.98 fps, 23.98 tbn
      Metadata:
        encoder         : Lavc61.19.100 wrapped_avframe
  Stream #0:1: Audio: pcm_s16le, 48000 Hz, stereo, s16, 1536 kb/s (default)
      Metadata:
        HANDLER_NAME    : SoundHandler
        VENDOR_ID       : [0][0][0][0]
        _STATISTICS_TAGS: BPS DURATION NUMBER_OF_FRAMES NUMBER_OF_BYTES
        BPS             : 193498
        DURATION        : 00:23:46.730000000
        NUMBER_OF_FRAMES: 66879
        NUMBER_OF_BYTES : 34508762
        _STATISTICS_WRITING_APP: mkvpropedit v66.0.0 ('Josie') 64-bit
        _STATISTICS_WRITING_DATE_UTC: 2025-06-04 08:18:37
        encoder         : Lavc61.19.100 pcm_s16le
frame=  170 fps=0.0 q=-0.0 size=N/A time=00:00:07.09 bitrate=N/A speed=13.8x    frame=  433 fps=425 q=-0.0 size=N/A time=00:00:18.05 bitrate=N/A speed=17.7x    frame=  687 fps=445 q=-0.0 size=N/A time=00:00:28.65 bitrate=N/A speed=18.6x    frame=  935 fps=453 q=-0.0 size=N/A time=00:00:38.99 bitrate=N/A speed=18.9x    frame= 1167 fps=453 q=-0.0 size=N/A time=00:00:48.67 bitrate=N/A speed=18.9x    frame= 1422 fps=460 q=-0.0 size=N/A time=00:00:59.30 bitrate=N/A speed=19.2x    frame= 1673 fps=465 q=-0.0 size=N/A time=00:01:09.77 bitrate=N/A speed=19.4x    frame= 1942 fps=471 q=-0.0 size=N/A time=00:01:20.99 bitrate=N/A speed=19.6x    frame= 2184 fps=471 q=-0.0 size=N/A time=00:01:31.09 bitrate=N/A speed=19.6x    frame= 2412 fps=468 q=-0.0 size=N/A time=00:01:40.60 bitrate=N/A speed=19.5x    frame= 2652 fps=468 q=-0.0 size=N/A time=00:01:50.61 bitrate=N/A speed=19.5x    frame= 2905 fps=470 q=-0.0 size=N/A time=00:02:01.16 bitrate=N/A speed=19.6x    frame= 3173 fps=474 q=-0.0 size=N/A time=00:02:12.34 bitrate=N/A speed=19.8x    frame= 3408 fps=472 q=-0.0 size=N/A time=00:02:22.14 bitrate=N/A speed=19.7x    frame= 3604 fps=465 q=-0.0 size=N/A time=00:02:30.31 bitrate=N/A speed=19.4x    frame= 3801 fps=460 q=-0.0 size=N/A time=00:02:38.53 bitrate=N/A speed=19.2x    frame= 4024 fps=459 q=-0.0 size=N/A time=00:02:47.83 bitrate=N/A speed=19.1x    frame= 4276 fps=460 q=-0.0 size=N/A time=00:02:58.34 bitrate=N/A speed=19.2x    frame= 4530 fps=462 q=-0.0 size=N/A time=00:03:08.93 bitrate=N/A speed=19.3x    frame= 4794 fps=464 q=-0.0 size=N/A time=00:03:19.94 bitrate=N/A speed=19.4x    frame= 5059 fps=467 q=-0.0 size=N/A time=00:03:31.00 bitrate=N/A speed=19.5x    frame= 5344 fps=471 q=-0.0 size=N/A time=00:03:42.88 bitrate=N/A speed=19.6x    frame= 5622 fps=474 q=-0.0 size=N/A time=00:03:54.48 bitrate=N/A speed=19.8x    frame= 5901 fps=476 q=-0.0 size=N/A time=00:04:06.12 bitrate=N/A speed=19.9x    frame= 6165 fps=478 q=-0.0 size=N/A time=00:04:17.13 bitrate=N/A speed=19.9x    frame= 6438 fps=480 q=-0.0 size=N/A time=00:04:28.51 bitrate=N/A speed=  20x    frame= 6708 fps=482 q=-0.0 size=N/A time=00:04:39.77 bitrate=N/A speed=20.1x    frame= 6979 fps=483 q=-0.0 size=N/A time=00:04:51.08 bitrate=N/A speed=20.1x    frame= 7248 fps=484 q=-0.0 size=N/A time=00:05:02.30 bitrate=N/A speed=20.2x    frame= 7536 fps=487 q=-0.0 size=N/A time=00:05:14.31 bitrate=N/A speed=20.3x    frame= 7819 fps=489 q=-0.0 size=N/A time=00:05:26.11 bitrate=N/A speed=20.4x    frame= 8104 fps=491 q=-0.0 size=N/A time=00:05:38.00 bitrate=N/A speed=20.5x    frame= 8385 fps=492 q=-0.0 size=N/A time=00:05:49.72 bitrate=N/A speed=20.5x    frame= 8658 fps=494 q=-0.0 size=N/A time=00:06:01.11 bitrate=N/A speed=20.6x    frame= 8931 fps=494 q=-0.0 size=N/A time=00:06:12.49 bitrate=N/A speed=20.6x    frame= 9161 fps=493 q=-0.0 size=N/A time=00:06:22.09 bitrate=N/A speed=20.6x    frame= 9438 fps=494 q=-0.0 size=N/A time=00:06:33.64 bitrate=N/A speed=20.6x    frame= 9695 fps=494 q=-0.0 size=N/A time=00:06:44.36 bitrate=N/A speed=20.6x    frame= 9964 fps=495 q=-0.0 size=N/A time=00:06:55.58 bitrate=N/A speed=20.6x    frame=10235 fps=496 q=-0.0 size=N/A time=00:07:06.88 bitrate=N/A speed=20.7x    frame=10513 fps=497 q=-0.0 size=N/A time=00:07:18.47 bitrate=N/A speed=20.7x    frame=10747 fps=495 q=-0.0 size=N/A time=00:07:28.23 bitrate=N/A speed=20.7x    frame=11009 fps=496 q=-0.0 size=N/A time=00:07:39.16 bitrate=N/A speed=20.7x    frame=11275 fps=496 q=-0.0 size=N/A time=00:07:50.26 bitrate=N/A speed=20.7x    frame=11532 fps=496 q=-0.0 size=N/A time=00:08:00.98 bitrate=N/A speed=20.7x    frame=11797 fps=497 q=-0.0 size=N/A time=00:08:12.03 bitrate=N/A speed=20.7x    frame=12060 fps=497 q=-0.0 size=N/A time=00:08:23.00 bitrate=N/A speed=20.7x    frame=12343 fps=498 q=-0.0 size=N/A time=00:08:34.80 bitrate=N/A speed=20.8x    frame=12620 fps=499 q=-0.0 size=N/A time=00:08:46.35 bitrate=N/A speed=20.8x    frame=12894 fps=500 q=-0.0 size=N/A time=00:08:57.78 bitrate=N/A speed=20.8x    frame=13158 fps=500 q=-0.0 size=N/A time=00:09:08.79 bitrate=N/A speed=20.8x    frame=13419 fps=500 q=-0.0 size=N/A time=00:09:19.68 bitrate=N/A speed=20.9x    frame=13701 fps=501 q=-0.0 size=N/A time=00:09:31.44 bitrate=N/A speed=20.9x    frame=13974 fps=501 q=-0.0 size=N/A time=00:09:42.83 bitrate=N/A speed=20.9x    frame=14252 fps=502 q=-0.0 size=N/A time=00:09:54.42 bitrate=N/A speed=20.9x    frame=14522 fps=503 q=-0.0 size=N/A time=00:10:05.68 bitrate=N/A speed=  21x    frame=14790 fps=503 q=-0.0 size=N/A time=00:10:16.86 bitrate=N/A speed=  21x    frame=15073 fps=504 q=-0.0 size=N/A time=00:10:28.66 bitrate=N/A speed=  21x    frame=15318 fps=503 q=-0.0 size=N/A time=00:10:38.88 bitrate=N/A speed=  21x    frame=15560 fps=503 q=-0.0 size=N/A time=00:10:48.98 bitrate=N/A speed=  21x    frame=15773 fps=501 q=-0.0 size=N/A time=00:10:57.86 bitrate=N/A speed=20.9x    frame=16040 fps=501 q=-0.0 size=N/A time=00:11:09.00 bitrate=N/A speed=20.9x    frame=16301 fps=501 q=-0.0 size=N/A time=00:11:19.88 bitrate=N/A speed=20.9x    frame=16581 fps=502 q=-0.0 size=N/A time=00:11:31.56 bitrate=N/A speed=20.9x    frame=16851 fps=502 q=-0.0 size=N/A time=00:11:42.82 bitrate=N/A speed=  21x    frame=17129 fps=503 q=-0.0 size=N/A time=00:11:54.42 bitrate=N/A speed=  21x    frame=17389 fps=503 q=-0.0 size=N/A time=00:12:05.26 bitrate=N/A speed=  21x    frame=17663 fps=503 q=-0.0 size=N/A time=00:12:16.69 bitrate=N/A speed=  21x    frame=17941 fps=504 q=-0.0 size=N/A time=00:12:28.28 bitrate=N/A speed=  21x    frame=18223 fps=504 q=-0.0 size=N/A time=00:12:40.05 bitrate=N/A speed=  21x    frame=18501 fps=505 q=-0.0 size=N/A time=00:12:51.64 bitrate=N/A speed=21.1x    frame=18763 fps=505 q=-0.0 size=N/A time=00:13:02.57 bitrate=N/A speed=21.1x    frame=19020 fps=505 q=-0.0 size=N/A time=00:13:13.29 bitrate=N/A speed=21.1x    frame=19304 fps=505 q=-0.0 size=N/A time=00:13:25.13 bitrate=N/A speed=21.1x    frame=19566 fps=506 q=-0.0 size=N/A time=00:13:36.06 bitrate=N/A speed=21.1x    frame=19837 fps=506 q=-0.0 size=N/A time=00:13:47.36 bitrate=N/A speed=21.1x    frame=20109 fps=506 q=-0.0 size=N/A time=00:13:58.71 bitrate=N/A speed=21.1x    frame=20390 fps=507 q=-0.0 size=N/A time=00:14:10.43 bitrate=N/A speed=21.1x    frame=20652 fps=507 q=-0.0 size=N/A time=00:14:21.36 bitrate=N/A speed=21.1x    frame=20906 fps=506 q=-0.0 size=N/A time=00:14:31.95 bitrate=N/A speed=21.1x    frame=21177 fps=507 q=-0.0 size=N/A time=00:14:43.25 bitrate=N/A speed=21.1x    frame=21457 fps=507 q=-0.0 size=N/A time=00:14:54.93 bitrate=N/A speed=21.2x    frame=21699 fps=507 q=-0.0 size=N/A time=00:15:05.02 bitrate=N/A speed=21.1x    frame=21911 fps=506 q=-0.0 size=N/A time=00:15:13.87 bitrate=N/A speed=21.1x    frame=22170 fps=506 q=-0.0 size=N/A time=00:15:24.67 bitrate=N/A speed=21.1x    frame=22409 fps=505 q=-0.0 size=N/A time=00:15:34.64 bitrate=N/A speed=21.1x    frame=22658 fps=505 q=-0.0 size=N/A time=00:15:45.02 bitrate=N/A speed=21.1x    frame=22928 fps=505 q=-0.0 size=N/A time=00:15:56.28 bitrate=N/A speed=21.1x    frame=23206 fps=505 q=-0.0 size=N/A time=00:16:07.88 bitrate=N/A speed=21.1x    frame=23479 fps=506 q=-0.0 size=N/A time=00:16:19.26 bitrate=N/A speed=21.1x    frame=23760 fps=506 q=-0.0 size=N/A time=00:16:30.99 bitrate=N/A speed=21.1x    frame=24015 fps=506 q=-0.0 size=N/A time=00:16:41.62 bitrate=N/A speed=21.1x    frame=24269 fps=506 q=-0.0 size=N/A time=00:16:52.21 bitrate=N/A speed=21.1x    frame=24533 fps=506 q=-0.0 size=N/A time=00:17:03.23 bitrate=N/A speed=21.1x    frame=24796 fps=506 q=-0.0 size=N/A time=00:17:14.19 bitrate=N/A speed=21.1x    frame=25079 fps=506 q=-0.0 size=N/A time=00:17:26.00 bitrate=N/A speed=21.1x    frame=25297 fps=506 q=-0.0 size=N/A time=00:17:35.09 bitrate=N/A speed=21.1x    frame=25487 fps=504 q=-0.0 size=N/A time=00:17:43.02 bitrate=N/A speed=  21x    frame=25704 fps=503 q=-0.0 size=N/A time=00:17:52.07 bitrate=N/A speed=  21x    frame=25881 fps=502 q=-0.0 size=N/A time=00:17:59.45 bitrate=N/A speed=20.9x    frame=26100 fps=501 q=-0.0 size=N/A time=00:18:08.58 bitrate=N/A speed=20.9x    frame=26362 fps=501 q=-0.0 size=N/A time=00:18:19.51 bitrate=N/A speed=20.9x    frame=26623 fps=501 q=-0.0 size=N/A time=00:18:30.40 bitrate=N/A speed=20.9x    frame=26830 fps=500 q=-0.0 size=N/A time=00:18:39.03 bitrate=N/A speed=20.9x    frame=27111 fps=500 q=-0.0 size=N/A time=00:18:50.75 bitrate=N/A speed=20.9x    frame=27375 fps=500 q=-0.0 size=N/A time=00:19:01.76 bitrate=N/A speed=20.9x    frame=27645 fps=501 q=-0.0 size=N/A time=00:19:13.02 bitrate=N/A speed=20.9x    frame=27877 fps=500 q=-0.0 size=N/A time=00:19:22.70 bitrate=N/A speed=20.9x    frame=28116 fps=500 q=-0.0 size=N/A time=00:19:32.67 bitrate=N/A speed=20.8x    frame=28388 fps=500 q=-0.0 size=N/A time=00:19:44.01 bitrate=N/A speed=20.9x    frame=28638 fps=500 q=-0.0 size=N/A time=00:19:54.44 bitrate=N/A speed=20.9x    frame=28894 fps=500 q=-0.0 size=N/A time=00:20:05.12 bitrate=N/A speed=20.9x    frame=29143 fps=500 q=-0.0 size=N/A time=00:20:15.50 bitrate=N/A speed=20.8x    frame=29399 fps=500 q=-0.0 size=N/A time=00:20:26.18 bitrate=N/A speed=20.8x    frame=29654 fps=500 q=-0.0 size=N/A time=00:20:36.81 bitrate=N/A speed=20.8x    frame=29938 fps=500 q=-0.0 size=N/A time=00:20:48.66 bitrate=N/A speed=20.9x    frame=30188 fps=500 q=-0.0 size=N/A time=00:20:59.09 bitrate=N/A speed=20.9x    frame=30466 fps=500 q=-0.0 size=N/A time=00:21:10.68 bitrate=N/A speed=20.9x    frame=30749 fps=501 q=-0.0 size=N/A time=00:21:22.48 bitrate=N/A speed=20.9x    frame=30993 fps=501 q=-0.0 size=N/A time=00:21:32.66 bitrate=N/A speed=20.9x    frame=31264 fps=501 q=-0.0 size=N/A time=00:21:43.96 bitrate=N/A speed=20.9x    frame=31531 fps=501 q=-0.0 size=N/A time=00:21:55.10 bitrate=N/A speed=20.9x    frame=31792 fps=501 q=-0.0 size=N/A time=00:22:05.99 bitrate=N/A speed=20.9x    frame=32047 fps=501 q=-0.0 size=N/A time=00:22:16.62 bitrate=N/A speed=20.9x    frame=32303 fps=501 q=-0.0 size=N/A time=00:22:27.34 bitrate=N/A speed=20.9x    frame=32558 fps=501 q=-0.0 size=N/A time=00:22:37.93 bitrate=N/A speed=20.9x    frame=32818 fps=501 q=-0.0 size=N/A time=00:22:48.78 bitrate=N/A speed=20.9x    frame=33075 fps=501 q=-0.0 size=N/A time=00:22:59.50 bitrate=N/A speed=20.9x    frame=33289 fps=500 q=-0.0 size=N/A time=00:23:08.42 bitrate=N/A speed=20.9x    frame=33529 fps=500 q=-0.0 size=N/A time=00:23:18.43 bitrate=N/A speed=20.8x    frame=33783 fps=500 q=-0.0 size=N/A time=00:23:29.03 bitrate=N/A speed=20.8x    frame=34013 fps=499 q=-0.0 size=N/A time=00:23:38.62 bitrate=N/A speed=20.8x    [Parsed_psnr_10 @ 0000025f6cb38980] PSNR y:49.393075 u:50.213778 v:51.086164 average:49.767040 min:40.342443 max:inf
[out#0/null @ 0000025f6ace5a00] video:14697KiB audio:267516KiB subtitle:0KiB other streams:0KiB global headers:0KiB muxing overhead: unknown
frame=34205 fps=499 q=-0.0 Lsize=N/A time=00:23:46.63 bitrate=N/A speed=20.8x    
